<?xml version="1.0" encoding="UTF-8"?>
<svg width="70px" height="79px" viewBox="0 0 70 79" version="1.1" xmlns="http://www.w3.org/2000/svg" xmlns:xlink="http://www.w3.org/1999/xlink">
    <!-- Generator: Sketch 52 (66869) - http://www.bohemiancoding.com/sketch -->
    <title>Group 67</title>
    <desc>Created with Sketch.</desc>
    <g id="Страницы" stroke="none" stroke-width="1" fill="none" fill-rule="evenodd">
        <g id="Artboard" transform="translate(-178.000000, -817.000000)">
            <g id="Group-67" transform="translate(172.000000, 817.000000)">
                <rect id="Rectangle-13" x="0" y="0" width="82" height="82"></rect>
                <path d="M72.2078021,8.3783701 C73.8351776,8.3783701 75.1666667,9.67846201 75.1666667,11.2674632 L75.1666667,75.6942402 C75.1666667,77.2832414 73.8351776,78.5833333 72.2078021,78.5833333 L9.7921979,78.5833333 C8.16482239,78.5833333 6.83333333,77.2832414 6.83333333,75.6942402 L6.83333333,11.2674632 C6.83333333,9.67846201 8.16482239,8.3783701 9.7921979,8.3783701 L17.27155,8.3783701 C18.8989255,8.3783701 20.2304146,9.67846201 20.2304146,11.2674632 C20.2304146,12.8564645 18.8989255,14.1565564 17.27155,14.1565564 L12.7510625,14.1565564 L12.7510625,72.8051471 L69.2653757,72.8051471 L69.2653757,14.1565564 L53.3861358,14.1565564 C51.7587603,14.1565564 50.4272713,12.8564645 50.4272713,11.2674632 L50.4272713,5.77818627 L31.605605,5.77818627 L31.605605,15.19984 L46.9259482,15.19984 C48.5533237,15.19984 49.8848128,16.4999319 49.8848128,18.0889331 C49.8848128,19.6779344 48.5533237,20.9780263 46.9259482,20.9780263 L28.6467404,20.9780263 C27.0193649,20.9780263 25.6878759,19.6779344 25.6878759,18.0889331 L25.6878759,2.88909314 C25.6878759,1.30009191 27.0193649,0 28.6467404,0 L53.3696977,0 C54.9970732,0 56.3285623,1.30009191 56.3285623,2.88909314 L56.3285623,8.3783701 L72.2078021,8.3783701 Z M54.6354342,34.8296228 C55.7861038,35.9692096 55.7861038,37.7989685 54.6189961,38.9225048 L38.7233181,54.314951 C38.1479833,54.8767191 37.391829,55.1495779 36.6356748,55.1495779 C35.8630824,55.1495779 35.1069281,54.8606686 34.5315933,54.2989005 L27.3974421,47.2848243 C26.2467725,46.1452376 26.2467725,44.3154786 27.4138802,43.1919424 C28.5809879,42.0684062 30.4549355,42.0684062 31.605605,43.2079929 L36.6521129,48.1676028 L50.4437094,34.8135723 C51.6108171,33.6900361 53.4847647,33.6900361 54.6354342,34.8296228 Z" id="Combined-Shape" fill="#8260C8"></path>
            </g>
        </g>
    </g>
</svg>