<?xml version="1.0" encoding="UTF-8"?>
<svg width="22px" height="18px" viewBox="0 0 22 18" version="1.1" xmlns="http://www.w3.org/2000/svg" xmlns:xlink="http://www.w3.org/1999/xlink">
    <!-- Generator: Sketch 52 (66869) - http://www.bohemiancoding.com/sketch -->
    <title>icon-mail</title>
    <desc>Created with Sketch.</desc>
    <g id="Страницы" stroke="none" stroke-width="1" fill="none" fill-rule="evenodd">
        <g id="Artboard" transform="translate(-253.000000, -333.000000)" fill-rule="nonzero">
            <g id="icon-mail" transform="translate(252.000000, 330.000000)">
                <rect id="Rectangle" x="0" y="0" width="24" height="24"></rect>
                <path d="M21.625,3 L2.375,3 C1.616,3 1,3.62030769 1,4.38461538 L1,19.6153846 C1,20.3803801 1.616,21 2.375,21 L21.625,21 C22.384683,21 23,20.3803801 23,19.6153846 L23,4.38461538 C23,3.62030769 22.384683,3 21.625,3 Z M20.9375,18.9230769 L3.0625,18.9230769 L3.0625,8.33147511 L11.115866,15.1368688 C11.372317,15.3528688 11.6865,15.4615747 12,15.4615747 C12.314183,15.4615747 12.627683,15.3528688 12.884134,15.1368688 L20.9375,8.33147511 L20.9375,18.9230769 Z M20.9375,5.62038009 L12,13.1720905 L3.0625,5.62038009 L3.0625,5.07692308 L20.9375,5.07692308 L20.9375,5.62038009 Z" id="mail" fill="white"></path>
            </g>
        </g>
    </g>
</svg>